<svg width="89" height="128" viewBox="0 0 89 128" fill="none" xmlns="http://www.w3.org/2000/svg">
<ellipse cx="74.6311" cy="12.5574" rx="12.4147" ry="12.5574" fill="white"/>
<circle cx="47.3757" cy="118.439" r="8.84727" fill="white"/>
<rect x="5.42252" y="18.2654" width="47.0903" height="10.845" fill="white"/>
<rect x="52.2234" y="18.2654" width="28.7834" height="45.7143" transform="rotate(29.0104 52.2234 18.2654)" fill="white"/>
<rect x="44.7431" y="25.1359" width="31.9932" height="36.0781" transform="rotate(29.0104 44.7431 25.1359)" fill="white"/>
<rect x="40.4353" y="67.0681" width="14.6706" height="57.0483" transform="rotate(29.0104 40.4353 67.0681)" fill="white"/>
<rect x="74.0667" y="42.524" width="11.1178" height="17.1491" transform="rotate(29.0104 74.0667 42.524)" fill="white"/>
<rect x="71.8248" y="29.1104" width="19.6394" height="11.5737" transform="rotate(29.0104 71.8248 29.1104)" fill="white"/>
<rect x="25.6871" y="58.7916" width="14.6706" height="32.9582" transform="rotate(29.0104 25.6871 58.7916)" fill="white"/>
<ellipse cx="16.553" cy="90.4705" rx="7.42029" ry="6.8495" fill="white"/>
<ellipse cx="19.4069" cy="120.152" rx="7.42029" ry="6.8495" fill="white"/>
<ellipse cx="71.349" cy="59.2197" rx="5.70792" ry="4.99443" fill="white"/>
<ellipse cx="5.70792" cy="23.6879" rx="5.70792" ry="5.42252" fill="white"/>
</svg>
