<svg width="189" height="271" viewBox="0 0 189 271" fill="none" xmlns="http://www.w3.org/2000/svg">
<ellipse cx="158.486" cy="26.6669" rx="26.3639" ry="26.6669" fill="#434343"/>
<circle cx="100.607" cy="251.517" r="18.788" fill="#434343"/>
<rect x="11.5153" y="38.7882" width="100.001" height="23.0305" fill="#434343"/>
<rect x="110.901" y="38.7882" width="61.1244" height="97.0788" transform="rotate(29.0104 110.901 38.7882)" fill="#434343"/>
<rect x="95.0162" y="53.3784" width="67.9407" height="76.6154" transform="rotate(29.0104 95.0162 53.3784)" fill="#434343"/>
<rect x="85.8683" y="142.425" width="31.1545" height="121.148" transform="rotate(29.0104 85.8683 142.425)" fill="#434343"/>
<rect x="157.288" y="90.3038" width="23.6096" height="36.4178" transform="rotate(29.0104 157.288 90.3038)" fill="#434343"/>
<rect x="152.527" y="61.8187" width="41.7061" height="24.578" transform="rotate(29.0104 152.527 61.8187)" fill="#434343"/>
<rect x="54.5492" y="124.85" width="31.1545" height="69.9899" transform="rotate(29.0104 54.5492 124.85)" fill="#434343"/>
<ellipse cx="35.1519" cy="192.123" rx="15.7577" ry="14.5456" fill="#434343"/>
<ellipse cx="41.2125" cy="255.154" rx="15.7577" ry="14.5456" fill="#434343"/>
<ellipse cx="151.516" cy="125.759" rx="12.1213" ry="10.6061" fill="#434343"/>
<ellipse cx="12.1213" cy="50.3035" rx="12.1213" ry="11.5152" fill="#434343"/>
</svg>
