<svg width="263" height="372" viewBox="0 0 263 372" fill="none" xmlns="http://www.w3.org/2000/svg">
<rect width="262.88" height="372" fill="white"/>
<rect x="8.90002" y="8.9" width="245.08" height="354.2" fill="white" stroke="#242424" stroke-width="7"/>
<ellipse cx="204.925" cy="58.4224" rx="30.7885" ry="31.1424" fill="#242424"/>
<circle cx="137.332" cy="321.01" r="21.9412" fill="#242424"/>
<rect x="33.2879" y="72.5781" width="116.784" height="26.8957" fill="#242424"/>
<rect x="149.354" y="72.5781" width="71.3829" height="113.372" transform="rotate(29.0104 149.354 72.5781)" fill="#242424"/>
<rect x="130.803" y="89.617" width="79.3432" height="89.4738" transform="rotate(29.0104 130.803 89.617)" fill="#242424"/>
<rect x="120.12" y="193.609" width="36.3832" height="141.48" transform="rotate(29.0104 120.12 193.609)" fill="#242424"/>
<rect x="203.525" y="132.74" width="27.5721" height="42.5299" transform="rotate(29.0104 203.525 132.74)" fill="#242424"/>
<rect x="197.965" y="99.4738" width="48.7056" height="28.7029" transform="rotate(29.0104 197.965 99.4738)" fill="#242424"/>
<rect x="83.5441" y="173.083" width="36.3832" height="81.7364" transform="rotate(29.0104 83.5441 173.083)" fill="#242424"/>
<ellipse cx="60.8914" cy="251.647" rx="18.4023" ry="16.9868" fill="#242424"/>
<ellipse cx="67.9692" cy="325.256" rx="18.4023" ry="16.9868" fill="#242424"/>
<ellipse cx="196.785" cy="174.145" rx="14.1556" ry="12.3862" fill="#242424"/>
<ellipse cx="33.9957" cy="86.0259" rx="14.1556" ry="13.4479" fill="#242424"/>
</svg>
